<?xml version="1.0" encoding="UTF-8" standalone="no"?>
<!-- Created with Inkscape (http://www.inkscape.org/) -->

<svg
   version="1.1"
   id="svg2"
   width="581.38666"
   height="528.62665"
   viewBox="0 0 581.38666 528.62665"
   sodipodi:docname="5584300.eps"
   xmlns:inkscape="http://www.inkscape.org/namespaces/inkscape"
   xmlns:sodipodi="http://sodipodi.sourceforge.net/DTD/sodipodi-0.dtd"
   xmlns="http://www.w3.org/2000/svg"
   xmlns:svg="http://www.w3.org/2000/svg">
  <defs
     id="defs6" />
  <sodipodi:namedview
     id="namedview4"
     pagecolor="#ffffff"
     bordercolor="#000000"
     borderopacity="0.25"
     inkscape:showpageshadow="2"
     inkscape:pageopacity="0.0"
     inkscape:pagecheckerboard="0"
     inkscape:deskcolor="#d1d1d1" />
  <g
     id="g8"
     inkscape:groupmode="layer"
     inkscape:label="ink_ext_XXXXXX"
     transform="matrix(1.3333333,0,0,-1.3333333,0,528.62667)">
    <g
       id="g10"
       transform="scale(0.1)">
      <g
         id="g12"
         transform="scale(10)">
        <text
           xml:space="preserve"
           transform="matrix(1,0,0,-1,0,238.587)"
           style="font-variant:normal;font-weight:bold;font-size:28.9987px;font-family:Barlow;-inkscape-font-specification:Barlow-Bold;writing-mode:lr-tb;fill:#23282b;fill-opacity:1;fill-rule:nonzero;stroke:none"
           id="text16"><tspan
             x="0 17.63121 35.6394 56.373474 72.060555 91.518051 110.80219 128.69438 134.49413 153.77826 173.23575 193.96982"
             y="0"
             sodipodi:role="line"
             id="tspan14">COMPANY NAME</tspan></text>
        <text
           xml:space="preserve"
           transform="matrix(1,0,0,-1,50.5691,216.86)"
           style="font-variant:normal;font-weight:300;font-size:16.4938px;font-family:Barlow;-inkscape-font-specification:Barlow-Light;writing-mode:lr-tb;fill:#23282b;fill-opacity:1;fill-rule:nonzero;stroke:none"
           id="text20"><tspan
             x="0 17.846209 35.41161 53.917904 72.341194 90.319206"
             y="0"
             sodipodi:role="line"
             id="tspan18">SLOGAN</tspan></text>
      </g>
      <path
         d="m 1629.39,3316.32 c 0,-87.81 -71.18,-158.99 -158.98,-158.99 -87.81,0 -158.99,71.18 -158.99,158.99 0,87.81 71.18,158.99 158.99,158.99 87.8,0 158.98,-71.18 158.98,-158.99"
         style="fill:#7ed5f0;fill-opacity:1;fill-rule:nonzero;stroke:none"
         id="path22" />
      <path
         d="m 536.875,3288.46 c 5.27,-15.78 -3.266,-32.86 -19.062,-38.12 -15.793,-5.27 -32.868,3.26 -38.129,19.06 -5.27,15.79 3.265,32.86 19.062,38.13 15.789,5.27 32.863,-3.27 38.129,-19.07"
         style="fill:#7ed5f0;fill-opacity:1;fill-rule:nonzero;stroke:none"
         id="path24" />
      <path
         d="m 563.168,3378.48 c 4.492,-13.48 -2.793,-28.05 -16.273,-32.55 -13.477,-4.49 -28.051,2.79 -32.543,16.27 -4.497,13.49 2.789,28.06 16.269,32.55 13.481,4.5 28.051,-2.79 32.547,-16.27"
         style="fill:#7ed5f0;fill-opacity:1;fill-rule:nonzero;stroke:none"
         id="path26" />
      <path
         d="m 532.688,3195.66 c 4.496,-13.48 -2.79,-28.05 -16.27,-32.55 -13.484,-4.49 -28.055,2.78 -32.551,16.27 -4.492,13.48 2.793,28.05 16.274,32.55 13.48,4.5 28.05,-2.79 32.547,-16.27"
         style="fill:#7ed5f0;fill-opacity:1;fill-rule:nonzero;stroke:none"
         id="path28" />
      <path
         d="m 604.031,3468.7 c 3.836,-11.5 -2.383,-23.94 -13.89,-27.77 -11.504,-3.84 -23.946,2.37 -27.778,13.88 -3.84,11.51 2.379,23.95 13.887,27.78 11.508,3.84 23.945,-2.38 27.781,-13.89"
         style="fill:#7ed5f0;fill-opacity:1;fill-rule:nonzero;stroke:none"
         id="path30" />
      <path
         d="m 529.109,3103.05 c 3.84,-11.5 -2.375,-23.94 -13.882,-27.78 -11.504,-3.84 -23.95,2.38 -27.782,13.89 -3.836,11.5 2.379,23.94 13.887,27.78 11.504,3.83 23.945,-2.38 27.777,-13.89"
         style="fill:#7ed5f0;fill-opacity:1;fill-rule:nonzero;stroke:none"
         id="path32" />
      <path
         d="m 646.402,3538.1 c 0,-8.33 -6.75,-15.08 -15.07,-15.08 -8.324,0 -15.07,6.75 -15.07,15.08 0,8.33 6.746,15.07 15.07,15.07 8.32,0 15.07,-6.74 15.07,-15.07"
         style="fill:#7ed5f0;fill-opacity:1;fill-rule:nonzero;stroke:none"
         id="path34" />
      <path
         d="m 523.352,3019.76 c 0,-8.32 -6.75,-15.07 -15.075,-15.07 -8.32,0 -15.07,6.75 -15.07,15.07 0,8.33 6.75,15.08 15.07,15.08 8.325,0 15.075,-6.75 15.075,-15.08"
         style="fill:#7ed5f0;fill-opacity:1;fill-rule:nonzero;stroke:none"
         id="path36" />
      <path
         d="m 1863.38,2884.75 c -6.8,-0.97 -26.26,-18.47 -53.48,-21.39 -27.23,-2.92 -137.11,-25.29 -163.37,-29.17 -26.25,-3.89 -103.07,-7.78 -200.31,-6.81 -97.25,0.97 -219.77,35.01 -282.01,59.32 -62.23,24.31 -108.91,16.53 -163.36,24.31 -54.459,7.78 -217.823,55.42 -217.823,55.42 0,0 -24.797,0.77 -48.132,-5.07 l 46.101,17.29 c -4.398,27.47 -14,93.69 -8.668,118.09 6.809,31.12 46.68,91.41 55.43,115.72 6.23,17.3 -1.817,57.19 -6.977,78.78 -38.265,10.8 -85.886,36.23 -85.886,36.23 23.335,-7.29 82.168,-21.66 82.168,-21.66 l 187.677,-35.98 c 0,0 54.45,-17.5 92.38,-24.31 37.92,-6.81 199.34,-4.86 233.38,-6.81 34.03,-1.94 140.03,-14.58 162.39,-14.58 22.37,0 59.32,0.96 59.32,9.72 0,8.75 -42.79,12.64 -42.79,12.64 6.81,0.97 19.45,5.84 43.76,10.69 24.31,4.87 14.59,25.29 14.59,25.29 18.48,1.95 20.42,25.28 7.78,22.37 -12.64,-2.92 -87.52,0 -87.52,0 0,0 37.92,10.7 55.43,15.55 17.5,4.87 22.36,24.31 0,18.48 -22.37,-5.83 -134.2,-11.67 -134.2,-11.67 0,0 21.39,19.45 39.87,23.34 18.48,3.89 28.2,25.28 17.51,23.34 -10.7,-1.95 -34.04,-0.98 -61.26,-9.73 -27.24,-8.75 -47.66,-28.2 -71.97,-50.56 -22.36,-4.87 -97.24,22.36 -144.88,34.03 -47.65,11.67 -138.09,19.45 -171.15,22.37 -33.064,2.91 -86.544,32.09 -126.411,53.48 -39.871,21.4 -85.574,40.84 -85.574,40.84 0,0 -38.415,12.86 -70.5,0 0,0 30.597,19.76 76.929,13.97 l 27.606,59.93 c 0,0 56.398,-26.25 71.957,-29.17 15.554,-2.91 41.812,79.74 41.812,79.74 l 18.477,-5.83 c 0,0 7.781,14.58 13.613,107.94 5.832,93.34 -91.406,142.73 -154.613,104.04 -88.75,-54.31 -64.176,-161.42 -64.176,-161.42 -9.727,-48.62 -69.043,-76.82 -105.996,-120.58 -32.391,-38.35 -78.766,-130.3 -96.27,-196.42 -17.504,-66.13 -20.421,-240.19 -20.421,-277.14 0,-36.96 -28.2,-74.88 -35.004,-163.37 -6.805,-88.49 53.48,-159.47 105.992,-162.39 52.508,-2.92 289.777,34.03 325.762,36.95 35.976,2.91 144.887,-0.97 144.887,-0.97 0,0 53.48,-15.56 152.67,-22.08 99.18,-6.53 234.35,9.44 253.8,14.3 19.45,4.86 90.43,6.81 136.14,-8.76 45.7,-15.55 80.71,5.84 86.54,12.65 5.83,6.8 46.68,49.59 81.68,60.29 35.01,10.69 56.41,33.06 56.41,33.06 0,0 21.39,9.72 26.25,23.34 4.86,13.61 -8.75,23.34 -15.56,22.36"
         style="fill:#50c4ba;fill-opacity:1;fill-rule:nonzero;stroke:none"
         id="path38" />
      <path
         d="M 614.801,2713.61 H 11.8945 l 602.9065,41.28 z"
         style="fill:#50c4ba;fill-opacity:1;fill-rule:nonzero;stroke:none"
         id="path40" />
      <path
         d="m 1665.46,2727.67 h 443.59 l -417.28,27.22 z"
         style="fill:#50c4ba;fill-opacity:1;fill-rule:nonzero;stroke:none"
         id="path42" />
      <path
         d="m 3513.07,3240.4 c 6.35,-19.04 -3.93,-39.61 -22.97,-45.95 -19.03,-6.35 -39.61,3.94 -45.95,22.97 -6.35,19.03 3.93,39.61 22.96,45.96 19.04,6.34 39.61,-3.94 45.96,-22.98"
         style="fill:#4968bb;fill-opacity:1;fill-rule:nonzero;stroke:none"
         id="path44" />
      <path
         d="m 3528.99,3360.88 c 5.42,-16.24 -3.36,-33.81 -19.61,-39.22 -16.25,-5.42 -33.81,3.36 -39.23,19.61 -5.42,16.24 3.36,33.8 19.61,39.22 16.25,5.42 33.81,-3.36 39.23,-19.61"
         style="fill:#4968bb;fill-opacity:1;fill-rule:nonzero;stroke:none"
         id="path46" />
      <path
         d="m 3487.88,3116.94 c 5.42,-16.25 -3.36,-33.81 -19.61,-39.23 -16.24,-5.41 -33.81,3.37 -39.23,19.61 -5.41,16.25 3.37,33.81 19.61,39.23 16.25,5.41 33.82,-3.36 39.23,-19.61"
         style="fill:#4968bb;fill-opacity:1;fill-rule:nonzero;stroke:none"
         id="path48" />
      <path
         d="m 3515.4,3467.31 c 4.62,-13.87 -2.88,-28.86 -16.74,-33.48 -13.87,-4.62 -28.86,2.87 -33.48,16.73 -4.63,13.87 2.87,28.87 16.74,33.49 13.87,4.62 28.86,-2.87 33.48,-16.74"
         style="fill:#4968bb;fill-opacity:1;fill-rule:nonzero;stroke:none"
         id="path50" />
      <path
         d="m 3454.35,2994.71 c 4.62,-13.87 -2.87,-28.86 -16.74,-33.48 -13.86,-4.63 -28.86,2.87 -33.48,16.74 -4.62,13.87 2.87,28.85 16.73,33.48 13.87,4.62 28.86,-2.87 33.49,-16.74"
         style="fill:#4968bb;fill-opacity:1;fill-rule:nonzero;stroke:none"
         id="path52" />
      <path
         d="m 3476.63,3556.32 c 0,-10.04 -8.14,-18.17 -18.17,-18.17 -10.03,0 -18.16,8.13 -18.16,18.17 0,10.03 8.13,18.16 18.16,18.16 10.03,0 18.17,-8.13 18.17,-18.16"
         style="fill:#4968bb;fill-opacity:1;fill-rule:nonzero;stroke:none"
         id="path54" />
      <path
         d="m 3420.93,2882.63 c 0,-10.03 -8.13,-18.17 -18.17,-18.17 -10.03,0 -18.17,8.14 -18.17,18.17 0,10.03 8.14,18.16 18.17,18.16 10.04,0 18.17,-8.13 18.17,-18.16"
         style="fill:#4968bb;fill-opacity:1;fill-rule:nonzero;stroke:none"
         id="path56" />
      <path
         d="m 3478.61,3713.37 53.05,-77.81 c 40.66,-14.14 159.13,-111.39 159.13,-111.39 0,0 8.84,-3.54 67.19,-35.37 58.35,-31.82 74.26,-187.22 74.26,-187.22 0,0 15.92,-33.79 15.92,-67.39 0,-33.6 -3.54,-116.7 0,-167.98 1.78,-25.8 8.49,-81.16 14.71,-129.8 94.68,109.73 152.08,252.54 152.08,408.84 0,314.47 -231.81,574.74 -533.86,619.43 26.3,-30.47 37.73,-68.85 41.73,-90.41 8.84,-47.74 -44.21,-160.9 -44.21,-160.9"
         style="fill:#50c4ba;fill-opacity:1;fill-rule:nonzero;stroke:none"
         id="path58" />
      <path
         d="m 3719.08,2919.46 c 1.76,30.05 1.76,51.27 0,77.79 -1.13,16.85 -15.8,77.93 -26.36,120.26 -4.39,17.6 -26.97,22.67 -38.48,8.63 l -21.9,-26.71 c -15.07,-18.38 -25.84,-39.88 -31.54,-62.95 l -30.25,-122.33 39.42,-154.82 c 39.95,15.1 77.91,34.19 113.48,56.75 -2.76,43.2 -5.22,88.83 -4.37,103.38"
         style="fill:#50c4ba;fill-opacity:1;fill-rule:nonzero;stroke:none"
         id="path60" />
      <path
         d="m 3047.17,3320.83 c 0,0 -10.6,56.58 10.61,106.09 38.03,88.72 162.67,90.18 162.67,90.18 33.6,30.06 104.33,63.65 104.33,63.65 v 0 c 0,17.81 -15.55,31.62 -33.22,29.5 -24.85,-2.99 -55.88,-6.51 -64.04,-6.51 -14.14,0 -15.9,136.15 -15.9,136.15 h -24.76 c 15.5,122.06 37.62,183.02 61.06,215.55 -278.06,-63.89 -485.52,-312.73 -485.52,-610.19 0,-183.25 78.73,-348.1 204.18,-462.62 9.37,75.53 38.15,164.13 38.15,164.13 3.55,97.25 42.44,274.07 42.44,274.07"
         style="fill:#7ed5f0;fill-opacity:1;fill-rule:nonzero;stroke:none"
         id="path62" />
      <path
         d="m 3171.47,3095.78 c -2.62,13.84 -21.93,15.23 -26.44,1.88 -10.51,-31.19 -22.52,-72.52 -25.36,-105.71 -3.8,-44.28 -19.36,-144.67 -27.91,-198.21 14.76,-7.96 29.92,-15.25 45.36,-22.03 13.24,101.65 46.21,241.27 46.21,252.07 0,7.62 -6.18,41.96 -11.86,72"
         style="fill:#7ed5f0;fill-opacity:1;fill-rule:nonzero;stroke:none"
         id="path64" />
      <g
         id="g66"
         transform="scale(10)">
        <text
           xml:space="preserve"
           transform="matrix(1,0,0,-1,247.679,237.565)"
           style="font-variant:normal;font-weight:bold;font-size:30.2901px;font-family:Barlow;-inkscape-font-specification:Barlow-Bold;writing-mode:lr-tb;fill:#23282b;fill-opacity:1;fill-rule:nonzero;stroke:none"
           id="text70"><tspan
             x="0 21.050808 42.163128 53.158234 76.148422"
             y="0"
             sodipodi:role="line"
             id="tspan68">SPINE</tspan></text>
        <text
           xml:space="preserve"
           transform="matrix(1,0,0,-1,344.545,237.565)"
           style="font-variant:normal;font-weight:300;font-size:30.2901px;font-family:Barlow;-inkscape-font-specification:Barlow-Light;writing-mode:lr-tb;fill:#23282b;fill-opacity:1;fill-rule:nonzero;stroke:none"
           id="text74"><tspan
             x="0 20.142601 42.011703 63.639626"
             y="0"
             sodipodi:role="line"
             id="tspan72">LOGO</tspan></text>
        <text
           xml:space="preserve"
           transform="matrix(1,0,0,-1,268.4333,219.8013)"
           style="font-variant:normal;font-weight:300;font-size:11.2434px;font-family:Barlow;-inkscape-font-specification:Barlow-Light;writing-mode:lr-tb;fill:#23282b;fill-opacity:1;fill-rule:nonzero;stroke:none"
           id="text78"><tspan
             x="0 7.9941473 16.775412 25.927763 34.550823 39.700233 49.403355 58.521503 63.01955 72.170921 81.413124 90.531273 99.323273 103.82132 113.50199 122.62014 131.75003"
             y="0"
             sodipodi:role="line"
             id="tspan76">TAGLINE GOES HERE</tspan></text>
      </g>
      <path
         d="m 1077.47,1064.16 c -40.28,-33.34 -98.622,-43.06 -98.622,-43.06 l -15.496,-26.268 c -6.258,-10.621 -0.973,-24.352 10.808,-27.941 35.86,-10.942 85.92,12.828 122.45,20.871 44.14,9.718 116.99,61.118 143.39,88.898 26.39,27.79 90.29,134.75 116.68,173.64 19.07,28.1 29.44,133.79 33.72,190.29 1.44,18.95 -7.17,36.88 -21.97,48.8 -24.87,20.04 -32.59,52.61 -32.59,52.61 -16.49,-0.85 -41.13,24.86 -57.28,44.27 -13.6,16.34 -35.3,23.57 -55.85,18.13 -39.9,-10.57 -87.28,-38.02 -99.4,-47.11 -16.66,-12.5 -136.126,-80.57 -198.638,-122.24 -62.508,-41.68 -123.625,-200.03 -123.625,-200.03 0,0 -1.395,-106.96 0,-116.69 0.808,-5.69 16.902,-30.49 30.074,-50.03 8.359,-12.4 26.414,-12.94 35.527,-1.08 l 9.407,12.23 c -15.278,84.72 4.164,133.35 37.504,177.8 33.339,44.44 94.461,79.17 137.521,66.67 43.06,-12.5 97.93,-59.73 96.54,-105.57 -1.38,-45.84 -29.86,-120.85 -70.15,-154.19"
         style="fill:#7ed5f0;fill-opacity:1;fill-rule:nonzero;stroke:none"
         id="path80" />
      <path
         d="m 1452.98,1475.63 c 1.07,-4.89 2.09,-10 3.02,-15.58 6.25,-37.5 -10.42,-252.12 -79.18,-381.31 C 1308.06,949.559 1135.12,820.371 1080.95,787.031 1026.77,753.699 876.746,568.25 876.746,568.25 c -2.254,-2.66 -4.676,-5.078 -7.152,-7.449 22.5,-2.539 45.34,-3.973 68.515,-3.973 333.381,0 603.641,270.25 603.641,603.642 0,115.52 -32.49,223.42 -88.77,315.16"
         style="fill:#7ed5f0;fill-opacity:1;fill-rule:nonzero;stroke:none"
         id="path82" />
      <path
         d="m 973.594,1645.92 c -4.567,-13.78 -19.43,-21.24 -33.203,-16.68 -13.782,4.56 -21.246,19.42 -16.684,33.2 4.559,13.77 19.43,21.24 33.203,16.68 13.774,-4.56 21.242,-19.42 16.684,-33.2 z m -148.711,-92.46 c -21.145,-0.05 -38.317,17.06 -38.36,38.2 -0.043,21.15 17.063,38.32 38.207,38.37 21.145,0.04 38.317,-17.07 38.36,-38.21 0.047,-21.14 -17.059,-38.32 -38.207,-38.36 z m -121.27,-118.45 c -24.773,-0.05 -44.898,19.99 -44.945,44.77 -0.051,24.77 19.988,44.89 44.762,44.94 24.769,0.05 44.894,-19.99 44.945,-44.76 0.047,-24.77 -19.992,-44.9 -44.762,-44.95 z M 603.09,1292.75 c -29.024,-0.06 -52.598,23.41 -52.656,52.44 -0.059,29.02 23.418,52.6 52.441,52.65 29.023,0.06 52.598,-23.41 52.656,-52.44 0.059,-29.02 -23.418,-52.59 -52.441,-52.65 z m -50.11,-143.59 c -24.773,-0.05 -44.898,19.99 -44.949,44.77 -0.047,24.77 19.992,44.89 44.766,44.94 24.769,0.06 44.894,-19.99 44.941,-44.76 0.055,-24.77 -19.988,-44.89 -44.758,-44.95 z m -0.015,-144.7 c -21.145,-0.04 -38.32,17.07 -38.363,38.21 -0.039,21.14 17.062,38.32 38.207,38.36 21.144,0.05 38.32,-17.06 38.363,-38.21 0.043,-21.14 -17.063,-38.32 -38.207,-38.36 z m 24.863,-96.312 c -4.562,-13.769 -19.426,-21.238 -33.203,-16.679 -13.773,4.562 -21.242,19.422 -16.68,33.203 4.559,13.777 19.426,21.25 33.203,16.68 13.774,-4.563 21.247,-19.422 16.68,-33.204 z m 360.281,855.962 c -333.382,0 -603.64,-270.26 -603.64,-603.64 0,-192.458 90.176,-363.751 230.457,-474.279 23.418,123.829 77.297,422.169 81.929,462.709 5.555,48.61 72.231,223.64 118.071,279.21 45.84,55.55 161.133,123.62 161.133,123.62 34.734,31.95 87.511,52.78 136.131,79.18 45.17,24.52 131.03,49 177.53,52.36 -88.76,51.32 -191.71,80.84 -301.611,80.84"
         style="fill:#7ed5f0;fill-opacity:1;fill-rule:nonzero;stroke:none"
         id="path84" />
      <g
         id="g86"
         transform="scale(10)">
        <text
           xml:space="preserve"
           transform="matrix(1,0,0,-1,15.8715,25.1711)"
           style="font-variant:normal;font-weight:bold;font-size:28.9954px;font-family:Barlow;-inkscape-font-specification:Barlow-Bold;writing-mode:lr-tb;fill:#23282b;fill-opacity:1;fill-rule:nonzero;stroke:none"
           id="text90"><tspan
             x="0 18.412079 37.519985 56.627884"
             y="0"
             sodipodi:role="line"
             id="tspan88">FEEL</tspan></text>
        <text
           xml:space="preserve"
           transform="matrix(1,0,0,-1,91.2594,25.1711)"
           style="font-variant:normal;font-weight:300;font-size:28.9954px;font-family:Barlow;-inkscape-font-specification:Barlow-Light;writing-mode:lr-tb;fill:#23282b;fill-opacity:1;fill-rule:nonzero;stroke:none"
           id="text94"><tspan
             x="0 19.977503 40.187508 60.397011"
             y="0"
             sodipodi:role="line"
             id="tspan92">GOOD</tspan></text>
        <text
           xml:space="preserve"
           transform="matrix(1,0,0,-1,43.8649,3.4469)"
           style="font-variant:normal;font-weight:300;font-size:16.4919px;font-family:Barlow;-inkscape-font-specification:Barlow-Light;writing-mode:lr-tb;fill:#23282b;fill-opacity:1;fill-rule:nonzero;stroke:none"
           id="text98"><tspan
             x="0 18.256302 35.853012 48.354019 67.797821 80.298317"
             y="0"
             sodipodi:role="line"
             id="tspan96">CLINIC</tspan></text>
      </g>
      <path
         d="m 2841.52,685.641 -9.59,-31.411 v 33.051 c -7.94,1.328 -15.95,2.41 -24.09,2.989 -3.09,0.21 -6.16,0.351 -9.2,0.441 -6.62,-9.371 -18.26,-21.383 -26.01,-29.02 -2.45,-2.941 -5.06,-5.55 -7.76,-7.461 0,0 3.21,2.989 7.76,7.461 9.85,11.829 17.07,29.149 17.07,29.149 6.23,24.379 3.81,47.582 -0.89,66.371 -7.98,31.918 -28.73,94.187 -28.73,94.187 l 25.55,102.192 c 0,0 11.17,-93.91 20.75,-111.61 9.57,-17.71 46.27,-120.941 35.14,-156.339 z m 208.56,-235.282 c -6.94,87.821 -58.16,163.813 -130.98,205.782 l -4.15,-29.063 -9.63,36.504 c -5.42,17.699 -9.53,31.219 -9.53,32.957 0,4.793 -4.79,146.883 -11.18,172.43 -6.38,25.543 -23.95,78.23 -23.95,78.23 0,0 -4.79,172.421 -23.95,217.131 -11.19,26.1 -34.9,42.96 -52.69,52.46 -14.02,7.49 -23.68,21.15 -25.54,36.94 l -3.19,27.15 c 0,0 35.13,41.51 38.32,87.8 3.19,46.31 -27.94,87.82 -67.06,91.01 0,0 -103.77,17.57 -110.96,-135.7 l 15.17,-2.4 c 0,0 -3.26,-65.39 8.78,-67.06 17.56,-2.43 35.03,-1.02 35.03,-1.02 l 7.3,-53.3 c 2.03,-14.79 -1.45,-29.77 -9.79,-42.14 -24.08,-35.71 -73.26,-110.58 -73.26,-126.26 0,-20.75 9.58,-43.111 9.58,-43.111 0,0 -11.17,-110.148 -9.58,-138.89 0,0 -11.17,-70.258 -11.17,-94.2 0,0 -314.52,31.93 -333.68,-43.109 -9.58,-39.91 36.72,-226.711 39.91,-266.629 3.2,-39.91 7.99,-100.57 3.2,-111.762 -4.79,-11.168 -48.7,-84.621 -56.68,-89.398 -7.98,-4.793 -38.32,0.801 -34.33,-17.563 1.28,-5.867 17.11,-4.168 49.7,-2.218 20.89,1.25 50.04,18.629 68.45,28.558 29.66,15.992 63.94,28.641 67.05,35.934 4.8,11.168 -20.75,59.066 -22.35,73.43 -1.59,14.378 4.8,151.668 6.39,178.82 1.6,27.137 -15.97,83.019 -15.97,83.019 0,0 164.43,-21.562 227.01,-30.019 0,0 37.23,-2.07 50.79,0 l -60.41,-12.602 c -31.07,-43.039 -49.48,-95.84 -49.48,-153 0,-63.48 22.63,-121.672 60.24,-166.98 20.4,-24.59 50.94,-38.488 82.89,-38.488 h 237.45 c 31.53,0 61.87,13.418 82.13,37.597 42.23,50.442 65.83,117.02 60.12,189.16"
         style="fill:#50c4ba;fill-opacity:1;fill-rule:nonzero;stroke:none"
         id="path100" />
      <path
         d="m 2740.68,1029.23 c 117.64,0 209.79,32.37 209.79,73.7 0,18.91 -18.41,36.05 -53.26,49.55 -2.15,0.85 -4.55,-0.1 -5.55,-2.17 -1.02,-2.07 -0.28,-4.55 1.69,-5.73 9.53,-5.67 20.86,-14.73 20.86,-25.72 0,-26.85 -69.72,-55.61 -173.53,-55.61 -103.81,0 -173.54,28.76 -173.54,55.61 0,10.99 11.34,20.05 20.86,25.72 1.98,1.18 2.72,3.66 1.7,5.73 -1,2.07 -3.42,3.01 -5.55,2.17 -34.85,-13.5 -53.27,-30.63 -53.27,-49.55 0,-41.33 92.16,-73.7 209.8,-73.7"
         style="fill:#7ed5f0;fill-opacity:1;fill-rule:nonzero;stroke:none"
         id="path102" />
      <path
         d="m 2740.68,921.012 c 121.4,0 221.59,26.609 256.31,64.347 13.47,-10.738 20.57,-22.129 20.57,-33.449 0,-49.058 -126.79,-90.48 -276.88,-90.48 -150.09,0 -276.89,41.422 -276.89,90.48 0,11.32 7.1,22.719 20.58,33.449 34.72,-37.738 134.91,-64.347 256.31,-64.347 z m 263.83,74.328 c 3.66,6.26 5.6,12.78 5.6,19.48 0,23.83 -23.47,45.53 -67.91,62.75 -2.14,0.86 -4.55,-0.11 -5.55,-2.18 -1.01,-2.06 -0.27,-4.54 1.7,-5.72 12.56,-7.49 27.53,-19.52 27.53,-34.29 0,-39.599 -103.12,-73.04 -225.2,-73.04 -122.08,0 -225.21,33.441 -225.21,73.04 0,14.77 14.97,26.8 27.53,34.29 1.98,1.18 2.72,3.66 1.71,5.72 -0.99,2.07 -3.42,3.02 -5.55,2.18 -44.44,-17.22 -67.91,-38.92 -67.91,-62.75 0,-6.7 1.94,-13.22 5.6,-19.48 -42.74,-19.602 -65.24,-43.121 -65.24,-68.629 0,-63.891 144.54,-113.922 329.07,-113.922 184.52,0 329.06,50.031 329.06,113.922 0,25.508 -22.49,49.027 -65.23,68.629"
         style="fill:#7ed5f0;fill-opacity:1;fill-rule:nonzero;stroke:none"
         id="path104" />
      <g
         id="g106"
         transform="scale(10)">
        <text
           xml:space="preserve"
           transform="matrix(1,0,0,-1,311.065,33.0621)"
           style="font-variant:normal;font-weight:bold;font-size:36.4462px;font-family:Barlow;-inkscape-font-specification:Barlow-Bold;writing-mode:lr-tb;fill:#23282b;fill-opacity:1;fill-rule:nonzero;stroke:none"
           id="text112"><tspan
             x="0 24.892591 48.472702 60.791084 87.760788 100.0792"
             y="0"
             sodipodi:role="line"
             id="tspan108">CLINIC</tspan><tspan
             x="0 24.417984 48.910202 61.227585 87.979591"
             y="-35.073002"
             sodipodi:role="line"
             id="tspan110">SPINE</tspan></text>
        <text
           xml:space="preserve"
           transform="matrix(1,0,0,-1,247.8611,2.9788)"
           style="font-variant:normal;font-weight:300;font-size:12.2628px;font-family:Barlow;-inkscape-font-specification:Barlow-Light;writing-mode:lr-tb;fill:#23282b;fill-opacity:1;fill-rule:nonzero;stroke:none"
           id="text116"><tspan
             x="0 8.7187405 18.295877 28.278286 37.683559 43.299774 53.882755 63.828056 68.733322 78.714752 88.794846 98.74015 108.32903 113.23431 123.79289 133.73724 143.69525"
             y="0"
             sodipodi:role="line"
             id="tspan114">TAGLINE GOES HERE</tspan></text>
      </g>
      <path
         d="M 2178.97,223.109 H 4314.66"
         style="fill:none;stroke:#50c4ba;stroke-width:10;stroke-linecap:butt;stroke-linejoin:miter;stroke-miterlimit:10;stroke-dasharray:none;stroke-opacity:1"
         id="path118" />
    </g>
  </g>
</svg>
