<?xml version="1.0" encoding="UTF-8" standalone="no"?>
<!-- Generator: Adobe Illustrator 24.3.0, SVG Export Plug-In . SVG Version: 6.00 Build 0)  -->

<svg
   version="1.1"
   id="Layer_1"
   x="0px"
   y="0px"
   viewBox="0 0 64 64"
   enable-background="new 0 0 64 64"
   xml:space="preserve"
   sodipodi:docname="carpeta.svg"
   inkscape:version="1.2.2 (732a01da63, 2022-12-09)"
   xmlns:inkscape="http://www.inkscape.org/namespaces/inkscape"
   xmlns:sodipodi="http://sodipodi.sourceforge.net/DTD/sodipodi-0.dtd"
   xmlns:xlink="http://www.w3.org/1999/xlink"
   xmlns="http://www.w3.org/2000/svg"
   xmlns:svg="http://www.w3.org/2000/svg"><defs
   id="defs13"><linearGradient
     id="linearGradient6671"
     inkscape:swatch="solid"><stop
       style="stop-color:#000080;stop-opacity:1;"
       offset="0"
       id="stop6669" /></linearGradient><linearGradient
     inkscape:collect="always"
     xlink:href="#linearGradient6671"
     id="linearGradient6673"
     x1="2"
     y1="32"
     x2="62"
     y2="32"
     gradientUnits="userSpaceOnUse" /></defs><sodipodi:namedview
   id="namedview11"
   pagecolor="#0044cc"
   bordercolor="#000000"
   borderopacity="0.25"
   inkscape:showpageshadow="2"
   inkscape:pageopacity="0"
   inkscape:pagecheckerboard="0"
   inkscape:deskcolor="#d1d1d1"
   showgrid="false"
   inkscape:zoom="4.9450749"
   inkscape:cx="-8.9988526"
   inkscape:cy="33.164311"
   inkscape:window-width="2560"
   inkscape:window-height="1369"
   inkscape:window-x="-8"
   inkscape:window-y="-8"
   inkscape:window-maximized="1"
   inkscape:current-layer="Layer_1" />
<path
   d="M23.6,50.9C23.7,51,23.9,51,24,51s0.3,0,0.4-0.1c7-3.2,11.6-10.3,11.6-18V31c0-0.5-0.4-0.9-0.9-1l-3-0.3  c-3.9-0.4-6.9-4.9-7.1-5.8c0-0.5-0.5-1-1-1c-0.5,0-1,0.4-1,0.9c0,0,0,0,0,0.1c-0.2,0.9-3.2,5.4-7.1,5.8l-3,0.3c-0.5,0-0.9,0.5-0.9,1  v1.9C12,40.6,16.5,47.7,23.6,50.9z M14,31.9l2.1-0.2c3.4-0.3,6.4-3.1,7.9-5.4c1.5,2.2,4.5,5.1,7.9,5.4l2.1,0.2v1c0,6.8-3.9,13-10,16  c-6.1-3-10-9.2-10-16V31.9z"
   id="path2"
   style="fill:#e26972;fill-opacity:1" />
<path
   d="M50,38c-1.4,0-2.7,0.3-4,0.7V9c0-0.6-0.4-1-1-1h-9h-4.1c-0.5-3.4-3.4-6-6.9-6h-2c-3.5,0-6.4,2.6-6.9,6H12H3C2.4,8,2,8.4,2,9  v52c0,0.6,0.4,1,1,1h42c0.5,0,0.8-0.3,0.9-0.7c1.3,0.5,2.6,0.7,4.1,0.7c6.6,0,12-5.4,12-12S56.6,38,50,38z M44,39.6  c-0.7,0.4-1.4,0.9-2,1.5V13c0-0.6-0.4-1-1-1h-4v-2h7V39.6z M12,16h24c0.6,0,1-0.4,1-1v-1h3v29.4c-1.3,1.9-2,4.2-2,6.6  c0,2.2,0.6,4.2,1.6,6H8V14h3v1C11,15.6,11.4,16,12,16z M17,10c0.6,0,1-0.4,1-1c0-2.8,2.2-5,5-5h2c2.8,0,5,2.2,5,5c0,0.6,0.4,1,1,1h4  v3v1H13v-1v-3H17z M4,60V10h7v2H7c-0.6,0-1,0.4-1,1v44c0,0.6,0.4,1,1,1h34c0,0,0,0,0.1,0c0.7,0.8,1.5,1.4,2.3,2H4z M50,60  c-5.5,0-10-4.5-10-10s4.5-10,10-10s10,4.5,10,10S55.5,60,50,60z"
   id="path4"
   style="fill:url(#linearGradient6673);fill-opacity:1" />
<path
   d="M54,46v-3c0-0.6-0.4-1-1-1h-6c-0.6,0-1,0.4-1,1v3h-3c-0.6,0-1,0.4-1,1v6c0,0.6,0.4,1,1,1h3v3c0,0.6,0.4,1,1,1h6  c0.6,0,1-0.4,1-1v-3h3c0.6,0,1-0.4,1-1v-6c0-0.6-0.4-1-1-1H54z M56,52h-3c-0.6,0-1,0.4-1,1v3h-4v-3c0-0.6-0.4-1-1-1h-3v-4h3  c0.6,0,1-0.4,1-1v-3h4v3c0,0.6,0.4,1,1,1h3V52z"
   id="path6"
   style="fill:#e26972;fill-opacity:1" />
<path
   d="M32,33h-2c0,4.6-2.5,8.8-6.5,11.1l1.1,1.7C29.1,43.2,32,38.3,32,33z"
   id="path8"
   style="fill:#e26972;fill-opacity:1" />
<circle
   id="path4557"
   style="fill:#000000;stroke:#000000"
   cx="307.19141"
   cy="181.89958"
   r="0.36405641" /><circle
   id="path5293"
   style="fill:#000000;stroke:#000000"
   cx="233.60133"
   cy="195.86282"
   r="0.36405641" /></svg>
