<?xml version="1.0" encoding="UTF-8" standalone="no"?>
<!-- Created with Inkscape (http://www.inkscape.org/) -->

<svg
   width="196.11653mm"
   height="60.143974mm"
   viewBox="0 0 196.11653 60.143976"
   version="1.1"
   id="svg5"
   xml:space="preserve"
   inkscape:export-filename="Logo.png"
   inkscape:export-xdpi="96"
   inkscape:export-ydpi="96"
   sodipodi:docname="logo.svg"
   inkscape:version="1.2.2 (732a01da63, 2022-12-09)"
   xmlns:inkscape="http://www.inkscape.org/namespaces/inkscape"
   xmlns:sodipodi="http://sodipodi.sourceforge.net/DTD/sodipodi-0.dtd"
   xmlns="http://www.w3.org/2000/svg"
   xmlns:svg="http://www.w3.org/2000/svg"><sodipodi:namedview
     id="namedview7"
     pagecolor="#ffffff"
     bordercolor="#000000"
     borderopacity="0.25"
     inkscape:showpageshadow="2"
     inkscape:pageopacity="0.0"
     inkscape:pagecheckerboard="0"
     inkscape:deskcolor="#d1d1d1"
     inkscape:document-units="mm"
     showgrid="false"
     inkscape:zoom="0.55048947"
     inkscape:cx="303.36638"
     inkscape:cy="144.41693"
     inkscape:window-width="1278"
     inkscape:window-height="1360"
     inkscape:window-x="1266"
     inkscape:window-y="0"
     inkscape:window-maximized="0"
     inkscape:current-layer="g280" /><defs
     id="defs2"><rect
       x="399.74252"
       y="-44.029613"
       width="343.54684"
       height="203.92664"
       id="rect504316" /><rect
       x="87.479889"
       y="-144.83424"
       width="336.59479"
       height="119.34342"
       id="rect504307" /></defs><g
     inkscape:label="Capa 1"
     inkscape:groupmode="layer"
     id="layer1"
     transform="translate(36.082423,-125.0701)"><g
       id="g299"
       transform="matrix(0.26458333,0,0,0.26458333,-54.725114,89.034553)"><path
         style="fill:#d9e6d5"
         d="m 153.65388,359.67656 c 13.56955,-22.56957 18.60076,-30.22455 20.21958,-30.76406 1.05209,-0.35064 3.5161,-1.30739 5.47557,-2.12611 l 3.56268,-1.48858 -3.10148,-1.64233 -3.10148,-1.64233 21.83832,-35.37908 c 12.01107,-19.45849 21.97984,-35.52061 22.15282,-35.69359 0.17299,-0.17298 5.87909,8.87227 12.68024,20.10056 l 12.36573,20.41506 -5.14265,8.60478 c -2.82846,4.73263 -5.13501,8.90797 -5.12568,9.27852 0.009,0.37056 3.15934,2.36964 7,4.44239 3.84067,2.07276 6.98303,4.13874 6.98303,4.59107 0,0.45234 -2.25688,2.05078 -5.0153,3.5521 -2.75841,1.50132 -4.795,3.08611 -4.52576,3.52175 0.26925,0.43565 2.55075,1.3692 5.07002,2.07455 2.51926,0.70535 4.21835,1.63706 3.77576,2.07048 -0.66888,0.65499 -95.82266,33.92141 -97.02731,33.92141 -0.21492,0 0.64724,-1.72646 1.91591,-3.83659 z m 256.80668,-3.52973 c -11.275,-3.98877 -33.775,-11.85798 -50,-17.48712 l -29.5,-10.23481 -2.21549,-3.3892 -2.21548,-3.3892 1.24805,-0.31667 c 2.51301,-0.63765 20.6824,-11.3432 20.68266,-12.1864 1.4e-4,-0.47834 -12.67966,-21.77103 -28.17734,-47.3171 l -28.1776,-46.44738 -4.31723,6.8171 c -2.37447,3.74941 -4.57919,7.61818 -4.89937,8.59729 l -0.58214,1.78018 -12.42303,-20.14546 c -6.83267,-11.08001 -12.42303,-20.37559 -12.42303,-20.65686 0,-1.63305 34.47078,-56.18332 35.09599,-55.53967 0.93352,0.96105 139.90401,226.33272 139.90401,226.88557 0,0.75388 -1.59243,0.24935 -22,-6.97027 z"
         id="path305" /><path
         style="fill:#b8e9ac"
         d="m 70.460564,363.2105 c 0,-0.28414 29.093371,-47.69479 64.651936,-105.35699 35.55856,-57.6622 66.97941,-108.66536 69.82411,-113.34036 2.8447,-4.675 5.52285,-8.41619 5.95145,-8.31375 0.93571,0.22363 25.8565,40.34224 102.05191,164.28778 21.12322,34.36072 38.28115,62.59874 38.12873,62.75116 -0.15242,0.15242 -25.09898,-8.35293 -55.43681,-18.90079 l -55.15968,-19.17791 13.47062,-7.57325 c 7.40884,-4.16528 13.45243,-8.02324 13.4302,-8.57324 -0.0222,-0.55 -3.56643,-6.625 -7.87601,-13.5 -4.30958,-6.875 -13.80687,-22.4 -21.10508,-34.5 -19.6816,-32.6309 -27.15206,-44.96705 -27.42239,-45.28325 -0.36455,-0.42641 -56.50961,92.37813 -56.50498,93.39946 0.002,0.48608 5.84559,4.2429 12.98531,8.34848 7.13972,4.10558 12.65041,7.74997 12.24599,8.09865 -0.40442,0.34868 -24.58531,8.8648 -53.73531,18.92472 -29.149997,10.05992 -53.562496,18.50117 -54.249996,18.75834 -0.6875,0.25717 -1.25,0.2351 -1.25,-0.0491 z"
         id="path303" /><path
         style="fill:#8dcd91"
         d="m 233.64132,269.52588 -12.12833,-19.98727 2.11012,-3.57639 c 1.16057,-1.96702 2.4412,-3.21025 2.84586,-2.76273 0.40465,0.44751 6.02875,9.55392 12.49801,20.23645 l 11.76228,19.4228 -1.79182,3.3272 c -0.9855,1.82997 -2.10141,3.32721 -2.4798,3.32721 -0.37839,0 -6.14573,-8.99427 -12.81632,-19.98727 z m 40.48787,-33.76273 c -1.29605,-2.0625 -6.7587,-10.86322 -12.13924,-19.55714 l -9.78278,-15.80715 1.8541,-3.44285 c 1.01975,-1.89358 2.09789,-3.44286 2.39587,-3.44286 0.29797,0 6.00521,8.8178 12.68275,19.59511 l 12.14099,19.5951 -2.00893,3.4049 c -1.10492,1.87269 -2.18385,3.40489 -2.39762,3.40489 -0.21378,0 -1.44909,-1.6875 -2.74514,-3.75 z"
         id="path301" /></g><g
       id="g280"
       transform="translate(0,1.8570861)"><text
         xml:space="preserve"
         transform="matrix(0.50739136,0,0,0.50739136,24.731527,208.5151)"
         id="text504305"
         style="font-style:normal;font-variant:normal;font-weight:500;font-stretch:normal;font-size:63.7434px;font-family:Poppins;-inkscape-font-specification:'Poppins, Medium';font-variant-ligatures:normal;font-variant-caps:normal;font-variant-numeric:normal;font-variant-east-asian:normal;white-space:pre;shape-inside:url(#rect504307);display:inline;fill:#000080;fill-opacity:1;stroke-width:0.99922868;stroke-dasharray:none;fill-rule:nonzero"><tspan
           x="87.480469"
           y="-89.058509"
           id="tspan17127">Maral</tspan></text><text
         xml:space="preserve"
         transform="matrix(0.377903,0,0,0.377903,-72.417137,179.85946)"
         id="text504314"
         style="font-style:italic;font-variant:normal;font-weight:normal;font-stretch:normal;font-size:26.8981px;font-family:Cuprum;-inkscape-font-specification:'Cuprum, Italic';font-variant-ligatures:normal;font-variant-caps:normal;font-variant-numeric:normal;font-variant-east-asian:normal;white-space:pre;shape-inside:url(#rect504316);display:inline;fill:#333333"><tspan
           x="399.74219"
           y="-19.823918"
           id="tspan17129">PHYSICAL THERAPY</tspan></text></g></g></svg>
